<?xml version="1.0" standalone="no"?>
<!DOCTYPE svg PUBLIC "-//W3C//DTD SVG 20010904//EN"
 "http://www.w3.org/TR/2001/REC-SVG-20010904/DTD/svg10.dtd">
<svg version="1.0" xmlns="http://www.w3.org/2000/svg"
 width="2856.000000pt" height="2856.000000pt" viewBox="0 0 2856.000000 2856.000000"
 preserveAspectRatio="xMidYMid meet">

<g transform="translate(0.000000,2856.000000) scale(0.100000,-0.100000)"
fill="#000000" stroke="none">
<path d="M13905 28553 c-2805 -71 -5526 -970 -7820 -2583 -1026 -721 -1958
-1579 -2766 -2545 -1055 -1263 -1884 -2700 -2449 -4245 -427 -1169 -706 -2430
-809 -3670 -41 -481 -46 -626 -46 -1235 0 -588 5 -732 41 -1165 273 -3369
1733 -6520 4134 -8920 2301 -2301 5284 -3736 8510 -4094 498 -56 836 -75 1400
-83 731 -9 1377 28 2060 118 3557 469 6797 2261 9107 5036 1210 1454 2129
3158 2678 4968 591 1948 757 4020 485 6060 -254 1900 -895 3740 -1880 5390
-1211 2028 -2909 3732 -4927 4943 -2329 1397 -4987 2095 -7718 2025z m1020
-824 c3802 -171 7360 -1966 9792 -4939 1891 -2313 2963 -5216 3022 -8185 20
-1045 -58 -1966 -250 -2945 -569 -2894 -2098 -5540 -4334 -7501 -1772 -1554
-3904 -2610 -6205 -3073 -1319 -266 -2692 -332 -4040 -196 -3381 343 -6512
1960 -8754 4523 -1240 1416 -2165 3062 -2722 4840 -503 1608 -701 3320 -579
5007 188 2582 1102 5026 2653 7095 401 534 744 928 1252 1436 437 438 732 702
1170 1051 1080 858 2334 1566 3630 2051 1719 643 3500 920 5365 836z"/>
<path d="M13705 27370 c-1855 -90 -3572 -529 -5200 -1330 -2188 -1077 -4034
-2747 -5334 -4823 -1010 -1614 -1654 -3435 -1886 -5327 -23 -192 -65 -619 -65
-665 0 -15 38 17 148 125 483 477 1423 1126 2173 1499 216 108 344 161 451
187 66 16 77 16 153 2 156 -31 294 -100 434 -219 171 -146 288 -323 298 -450
7 -95 -18 -187 -327 -1179 -359 -1154 -479 -1600 -431 -1600 22 0 151 33 238
61 476 153 1033 509 1858 1190 242 199 262 217 855 789 556 535 762 729 1019
958 686 613 1161 923 1413 922 137 -1 277 -59 364 -153 246 -263 252 -843 18
-1797 -147 -598 -356 -1233 -829 -2520 -411 -1119 -492 -1372 -483 -1520 4
-79 11 -80 179 -32 1296 370 2313 420 2905 143 235 -111 408 -295 458 -487 76
-294 -113 -597 -410 -658 -69 -14 -255 -35 -263 -30 -4 4 12 24 99 128 95 114
111 184 60 272 -87 153 -341 282 -695 353 -590 119 -1364 74 -1918 -110 -384
-128 -646 -309 -761 -529 -20 -38 -70 -185 -120 -351 -769 -2565 -1778 -4486
-2774 -5283 l-122 -98 92 -87 c1278 -1204 2777 -2137 4413 -2746 1839 -684
3803 -944 5780 -764 2542 231 4967 1210 6974 2817 620 496 1237 1093 1751
1692 1493 1742 2496 3817 2926 6055 121 630 195 1274 224 1945 11 257 12 853
2 939 l-7 54 -51 -79 c-253 -388 -686 -844 -1156 -1217 -1007 -798 -2100
-1228 -2909 -1147 -525 54 -923 290 -1210 719 -84 125 -203 362 -219 434 -6
28 -21 68 -34 87 -22 33 -43 50 -143 113 -60 38 -71 60 -89 178 -20 132 -14
224 21 294 29 61 68 94 159 134 76 34 140 89 167 144 12 22 38 99 59 172 229
782 667 1452 1255 1920 455 363 1002 604 1565 690 146 22 459 31 590 16 348
-40 596 -143 755 -313 109 -116 155 -234 155 -394 0 -512 -640 -1154 -1770
-1776 -406 -223 -922 -472 -1274 -614 -141 -57 -230 -110 -313 -187 -201 -188
-237 -414 -94 -592 106 -132 321 -239 565 -281 134 -24 400 -14 561 20 706
149 1571 687 2580 1605 88 80 302 286 476 459 l315 313 -8 82 c-84 852 -228
1612 -453 2392 -1112 3861 -3957 7013 -7689 8520 -1314 531 -2636 827 -4126
925 -210 14 -1122 21 -1345 10z m-3475 -6386 c85 -19 228 -89 311 -152 279
-212 368 -518 227 -784 -104 -196 -348 -314 -581 -280 -181 26 -307 127 -409
328 -101 197 -145 366 -136 521 8 126 36 192 112 269 114 113 267 145 476 98z
m-4502 -485 c142 -48 316 -232 387 -408 48 -116 68 -225 68 -361 0 -216 -52
-362 -170 -478 -149 -148 -346 -201 -491 -132 -139 66 -288 211 -351 342 -62
130 -75 191 -75 353 1 163 20 249 83 380 86 179 207 290 351 321 64 14 124 9
198 -17z m9807 -3473 c33 -9 96 -34 140 -56 157 -77 258 -181 345 -355 155
-311 187 -746 115 -1530 -27 -292 -31 -513 -10 -534 7 -7 25 9 55 52 60 83
399 422 583 582 633 551 1306 999 1742 1160 300 111 519 119 647 22 147 -112
185 -313 134 -717 -75 -601 -90 -1109 -41 -1417 37 -233 101 -413 166 -467
121 -102 303 -18 719 333 69 58 235 202 369 321 511 451 692 579 819 580 35 0
49 -6 74 -30 28 -28 30 -35 26 -85 -9 -105 -113 -282 -415 -705 -575 -806
-1304 -1431 -1838 -1576 -295 -80 -544 -10 -701 199 -280 373 -345 1145 -195
2338 22 168 17 219 -19 239 -29 16 -50 12 -115 -19 -277 -131 -944 -843 -1980
-2111 -170 -208 -305 -351 -396 -417 -426 -313 -678 0 -761 947 -16 188 -16
852 1 1070 7 91 19 219 28 285 25 197 28 360 9 435 -78 306 -411 271 -986
-105 -922 -602 -2269 -2012 -2651 -2775 -76 -151 -102 -239 -97 -332 l3 -78
-41 0 c-60 0 -190 35 -264 72 -84 42 -203 160 -248 245 -50 95 -72 197 -72
330 0 191 46 360 159 588 115 231 200 352 591 845 389 488 511 671 568 850 42
129 38 205 -15 282 -76 111 -236 89 -466 -65 -179 -121 -298 -227 -698 -624
-206 -205 -382 -373 -391 -373 -27 0 -82 44 -101 80 -78 149 148 619 507 1054
410 496 880 861 1271 986 117 38 288 51 387 31 139 -29 293 -151 374 -296 80
-144 140 -355 164 -575 7 -58 14 -116 17 -129 4 -24 5 -24 25 9 58 96 375 367
739 632 578 421 1157 745 1454 814 71 16 184 12 270 -10z"/>
<path d="M24876 16510 c-308 -66 -721 -280 -1051 -545 -55 -44 -157 -136 -226
-205 -247 -246 -378 -463 -404 -672 -13 -104 17 -118 147 -72 427 154 1324
743 1699 1114 201 199 254 331 152 380 -47 22 -214 23 -317 0z"/>
<path d="M8945 16256 c-148 -49 -354 -181 -651 -417 -252 -201 -501 -420
-1274 -1124 -708 -644 -985 -890 -1310 -1161 -938 -782 -1582 -1167 -2037
-1214 -396 -42 -630 190 -731 725 -23 125 -22 474 2 635 50 327 193 747 511
1495 182 427 185 440 141 492 -23 27 -28 28 -103 26 -104 -2 -224 -38 -388
-117 -358 -172 -804 -493 -1496 -1077 -113 -96 -254 -214 -313 -264 l-108 -90
6 -270 c14 -704 102 -1475 251 -2218 301 -1488 865 -2924 1663 -4227 206 -337
699 -1053 726 -1055 5 0 24 59 43 130 255 980 942 2142 1899 3215 404 453 913
950 1380 1348 l161 137 63 165 c34 90 177 455 317 810 969 2456 1340 3513
1379 3937 9 99 -5 133 -55 132 -20 0 -54 -6 -76 -13z"/>
<path d="M6980 10122 c-230 -129 -438 -302 -730 -607 -772 -807 -1618 -2178
-1879 -3044 -68 -225 -85 -325 -86 -497 l0 -151 72 -84 c167 -197 162 -192
231 -197 53 -4 70 0 124 26 162 77 379 323 650 737 630 962 1476 2765 1693
3610 32 126 44 255 24 255 -8 0 -52 -22 -99 -48z"/>
</g>
</svg>
